<svg width="20" height="20" viewBox="0 0 20 20" fill="none" xmlns="http://www.w3.org/2000/svg">
                <path fill-rule="evenodd" clip-rule="evenodd" d="M13.3585 0C14.2513 0 14.9924 0.303152 15.5823 0.878762L19.1377 4.4243C19.6975 4.98477 20 5.7272 20 6.54537V13.3783C20 14.3026 19.6672 15.0452 19.0469 15.6664L15.6732 19.045C14.9924 19.7266 14.2361 19.9995 13.3133 19.9995H6.6869C5.73362 20.0146 4.99229 19.7117 4.32698 19.045L0.953082 15.6664C0.317827 15.0452 0 14.3177 0 13.3783V6.54537C0 5.7272 0.302702 4.98477 0.862132 4.4243L4.41773 0.878762C4.99229 0.303152 5.74874 0 6.64133 0H13.3585ZM18.3661 9.2269C18.5778 9.2269 18.6839 9.10592 18.6839 8.87851V6.69685C18.6839 6.13619 18.4871 5.65126 18.0938 5.24228L14.6596 1.75752C14.3116 1.40933 13.8729 1.3029 13.374 1.3029H6.6262C6.12707 1.3029 5.68844 1.40933 5.34036 1.75752L1.90636 5.24228C1.49799 5.65126 1.31628 6.13619 1.31628 6.69685V13.3783C1.30076 13.939 1.48286 14.3482 1.87611 14.742L5.24961 18.1206C5.64307 18.5146 6.0817 18.6966 6.6262 18.6966H13.374C13.9183 18.6966 14.3569 18.5146 14.7504 18.1206L18.1241 14.742C18.5173 14.3631 18.6839 13.939 18.6839 13.3783V11.0755C18.6688 10.8786 18.5629 10.7726 18.3661 10.7726H17.3527V11.4845C17.3527 12.0149 17.2769 12.2875 16.8231 12.2875H16.369C15.9154 12.2875 15.8396 12.0149 15.8396 11.4845V10.7726H15.1287C14.5993 10.7726 14.3269 10.6966 14.3269 10.2422V9.75727C14.3269 9.30284 14.5993 9.2269 15.1287 9.2269H15.8396V8.51496C15.8396 7.9848 15.9154 7.71214 16.369 7.71214H16.8231C17.2769 7.71214 17.3527 7.9848 17.3527 8.51496V9.2269H18.3661ZM12.723 9.90894C13.5702 9.28789 13.5854 8.65149 13.5854 8.13627V7.62125C13.4946 5.90897 12.9198 5.25742 10.9379 5.25742C8.95627 5.25742 8.38151 5.90897 8.29056 7.62125V8.13627C8.29056 8.65149 8.30569 9.28789 9.15289 9.90894C8.13931 10.3028 8.06368 11.1666 8.06368 12.3027C8.06368 13.9845 8.65356 14.8178 10.9379 14.8634C13.2223 14.8178 13.8126 13.9845 13.8126 12.3027C13.8126 11.1666 13.737 10.3028 12.723 9.90894ZM9.62177 12.0904C9.62177 13.0451 9.96985 13.4238 10.9379 13.4238C11.9063 13.4238 12.2543 13.0451 12.2543 12.0904C12.2543 11.1359 11.9063 10.6966 10.9379 10.6966C9.96985 10.6966 9.62177 11.1359 9.62177 12.0904ZM10.9379 6.65121C11.7701 6.65121 12.1031 6.95436 12.1031 7.96965C12.1031 8.95424 11.7701 9.28789 10.9379 9.28789C10.1062 9.28789 9.77322 8.95424 9.77322 7.96965C9.77322 6.95436 10.1062 6.65121 10.9379 6.65121ZM4.7678 5.42425H6.14458C6.67396 5.42425 6.94661 5.51513 6.94661 5.95441V13.939C6.94661 14.4694 6.85566 14.742 6.41664 14.742H5.90258C5.46375 14.742 5.3728 14.4694 5.3728 13.939V7.39364C5.3728 7.09069 5.28225 6.98445 5.08563 6.98445H4.7678C4.23862 6.98445 3.96617 6.89377 3.96617 6.45429V5.95441C3.96617 5.51513 4.23862 5.42425 4.7678 5.42425Z" fill="white"></path>
            </svg>