<svg width="16" height="16" viewBox="0 0 16 16" fill="none" xmlns="http://www.w3.org/2000/svg">
<rect x="2.6665" y="4" width="10.6667" height="1.33333" rx="0.666667" fill="#B8B8CC"/>
<rect x="2.6665" y="7.3335" width="10.6667" height="1.33333" rx="0.666667" fill="#B8B8CC"/>
<rect x="2.6665" y="10.667" width="10.6667" height="1.33333" rx="0.666667" fill="#B8B8CC"/>
<path d="M6.16667 4.66683C6.16667 5.12707 5.79357 5.50016 5.33333 5.50016C4.8731 5.50016 4.5 5.12707 4.5 4.66683C4.5 4.20659 4.8731 3.8335 5.33333 3.8335C5.79357 3.8335 6.16667 4.20659 6.16667 4.66683Z" fill="#B8B8CC" stroke="#B8B8CC"/>
<path d="M11.4997 8.00033C11.4997 8.46056 11.1266 8.83366 10.6663 8.83366C10.2061 8.83366 9.83301 8.46056 9.83301 8.00033C9.83301 7.54009 10.2061 7.16699 10.6663 7.16699C11.1266 7.16699 11.4997 7.54009 11.4997 8.00033Z" fill="#B8B8CC" stroke="#B8B8CC"/>
<path d="M7.49967 11.3333C7.49967 11.7936 7.12658 12.1667 6.66634 12.1667C6.2061 12.1667 5.83301 11.7936 5.83301 11.3333C5.83301 10.8731 6.2061 10.5 6.66634 10.5C7.12658 10.5 7.49967 10.8731 7.49967 11.3333Z" fill="#B8B8CC" stroke="#B8B8CC"/>
</svg>
