<svg width="12" height="12" fill="none" xmlns="http://www.w3.org/2000/svg">
                        <path fill-rule="evenodd" clip-rule="evenodd" d="M2 3h8v6H2V3zM1 3a1 1 0 011-1h8a1 1 0 011 1v6a1 1 0 01-1 1H2a1 1 0 01-1-1V3zm2.139.792a.25.25 0 00-.278.416l3 2a.25.25 0 00.278 0l3-2a.25.25 0 00-.278-.416L6 5.7 3.139 3.792zm4.684 3.031a.25.25 0 01.354 0l1 1a.25.25 0 01-.354.354l-1-1a.25.25 0 010-.354zm-4 0a.25.25 0 01.354.354l-1 1a.25.25 0 01-.354-.354l1-1z" fill="#fff"></path>
                    </svg>