<svg width="200" height="100" fill="none" xmlns="http://www.w3.org/2000/svg"><path fill-rule="evenodd" clip-rule="evenodd" d="M43.746 29.06 36.32 54.53h-1.27l-7.427-25.47c-1.27-4.31-5.257-7.278-9.814-7.278H0v55.446h17.831v-32.77h1.27l10.209 32.77h12.749l10.186-32.77h1.27v32.77h17.832V21.782h-17.81c-4.534 0-8.52 2.967-9.791 7.277Zm98.727 48.168h17.943V60.832h18.05c9.441 0 17.481-5.284 20.591-12.713h-56.584v29.109ZM98.138 54.55l12.552-26.92c1.664-3.553 5.279-5.849 9.267-5.849h15.135v55.446h-17.83V44.48h-1.272l-12.55 26.9c-1.666 3.552-5.28 5.848-9.266 5.848H79.037V21.782h17.83v32.77h1.271Z" fill="#006848"/><path d="M180.241 21.782c5.147 0 9.814 1.95 13.34 5.155C197.524 30.49 200 35.6 200 41.297c0 1.169-.131 2.317-.329 3.443H166.55c-11.217 0-20.724-7.277-23.921-17.327-.043-.108-.067-.238-.11-.368-.088-.303-.152-.628-.24-.931a25.495 25.495 0 0 1-.636-4.332h38.598Z" fill="url(#a)"/><defs><linearGradient id="a" x1="200" y1="82.175" x2="142" y2="82.175" gradientUnits="userSpaceOnUse"><stop stop-color="#1E5CD8"/><stop offset="1" stop-color="#02AFFF"/></linearGradient></defs></svg>