<svg width="18" height="18" viewBox="0 0 18 18" fill="none" xmlns="http://www.w3.org/2000/svg">
                    <path d="M12.6 2.4748C12.6 2.10201 12.9022 1.7998 13.275 1.7998H15.525C15.8978 1.7998 16.2 2.10201 16.2 2.4748V4.7248C16.2 5.0976 15.8978 5.3998 15.525 5.3998C15.1522 5.3998 14.85 5.0976 14.85 4.7248V4.1044L10.8273 8.1271C10.5637 8.39071 10.1363 8.39071 9.87271 8.1271L7.65 5.9044L3.8523 9.7021C3.5887 9.96571 3.16131 9.96571 2.89771 9.7021C2.6341 9.4385 2.6341 9.01111 2.89771 8.74751L7.17271 4.47251C7.43631 4.2089 7.8637 4.2089 8.1273 4.47251L10.35 6.69521L13.8954 3.1498H13.275C12.9022 3.1498 12.6 2.8476 12.6 2.4748Z" fill="white"></path>
                    <path d="M1.8 12.3748C1.8 12.002 2.10221 11.6998 2.475 11.6998C2.8478 11.6998 3.15 12.002 3.15 12.3748V15.5248C3.15 15.8976 2.8478 16.1998 2.475 16.1998C2.10221 16.1998 1.8 15.8976 1.8 15.5248V12.3748Z" fill="white"></path>
                    <path d="M5.4 11.4748C5.4 11.102 5.70221 10.7998 6.075 10.7998C6.4478 10.7998 6.75 11.102 6.75 11.4748V15.5248C6.75 15.8976 6.4478 16.1998 6.075 16.1998C5.70221 16.1998 5.4 15.8976 5.4 15.5248V11.4748Z" fill="white"></path>
                    <path d="M9 11.4748C9 11.102 9.30221 10.7998 9.675 10.7998C10.0478 10.7998 10.35 11.102 10.35 11.4748V15.5248C10.35 15.8976 10.0478 16.1998 9.675 16.1998C9.30221 16.1998 9 15.8976 9 15.5248V11.4748Z" fill="white"></path>
                    <path d="M12.6 9.67481C12.6 9.30201 12.9022 8.9998 13.275 8.9998C13.6478 8.9998 13.95 9.30201 13.95 9.67481V15.5248C13.95 15.8976 13.6478 16.1998 13.275 16.1998C12.9022 16.1998 12.6 15.8976 12.6 15.5248V9.67481Z" fill="white"></path>
                </svg>