<svg width="60" height="32" viewBox="0 0 60 32" fill="none" xmlns="http://www.w3.org/2000/svg">
<path d="M28.8492 14.7062C28.8492 11.6074 28.8492 8.50873 28.8492 5.41001C28.8492 4.94001 28.8492 4.47001 28.8492 4C28.8621 4 28.8792 4 28.8921 4C28.8921 4.01248 28.8921 4.02912 28.8921 4.04159C29.2558 4.69045 29.6152 5.33931 29.9876 5.98401C30.6466 7.13614 31.3098 8.28411 31.9731 9.4321C31.9774 10.5842 31.9774 11.7364 31.9817 12.8885C31.9817 14.0698 31.9859 15.2552 31.9859 16.4364C31.9817 16.478 31.9731 16.5196 31.9688 16.5612C30.9289 15.9456 29.8891 15.3259 28.8492 14.7062Z" fill="#F9B619"/>
<path d="M28.8498 14.7057C29.8896 15.3255 30.9295 15.9452 31.965 16.5649C33.0605 17.2222 34.156 17.8793 35.2515 18.5323C37.0616 19.6138 38.876 20.691 40.6861 21.7725C40.7332 21.8016 40.8745 21.8016 40.7888 21.9222C40.7332 21.8723 40.6691 21.8889 40.6048 21.8889C38.6877 21.8889 36.7706 21.8931 34.8536 21.8931C34.8407 21.8764 34.8364 21.8557 34.8193 21.8473C33.8693 21.2817 32.9236 20.7202 31.9736 20.1587C31.2804 19.7428 30.5871 19.3226 29.8896 18.915C29.5429 18.7154 29.2178 18.4825 28.8498 18.3202H28.8455C28.824 18.2412 28.7513 18.2204 28.6915 18.1872C28.118 17.8461 27.5446 17.4967 26.9669 17.1598C26.6031 16.9476 26.2608 16.7022 25.8714 16.5275C24.9685 15.9535 24.0442 15.417 23.1156 14.8804C22.1913 13.2791 21.2669 11.6778 20.3469 10.0723C20.2442 9.89341 20.0944 9.73535 20.0773 9.51907C20.6422 9.81022 21.1771 10.1555 21.7206 10.4799C24.0313 11.8525 26.3421 13.2292 28.6529 14.606C28.7256 14.6392 28.7899 14.6725 28.8498 14.7057Z" fill="#1587C8"/>
<path d="M20.0909 9.51972C20.1081 9.736 20.2621 9.89822 20.3605 10.0729C21.2763 11.6784 22.2049 13.2798 23.1292 14.8811C23.1292 15.9708 23.1292 17.0648 23.1292 18.1545C22.6157 19.0446 22.0979 19.9347 21.5844 20.8247C21.1351 21.5984 20.6858 22.3763 20.2407 23.154C20.1765 23.2663 20.0867 23.3703 20.0909 23.5117C20.0653 23.5117 20.0439 23.5158 20.0182 23.5158C20.0139 23.4411 20.0096 23.3662 20.0096 23.2871C20.0096 18.7659 20.0096 14.2447 20.0096 9.72353C20.0096 9.64866 19.9711 9.55716 20.0481 9.4906C20.061 9.49892 20.0781 9.5114 20.0909 9.51972Z" fill="#5B57A2"/>
<path d="M31.973 9.43222C31.3098 8.28424 30.6465 7.1321 29.9875 5.98413C29.6195 5.33943 29.26 4.69057 28.892 4.04172C29.444 4.32455 29.966 4.66146 30.4967 4.97757C33.8944 6.99069 37.2878 9.01213 40.6813 11.0294C40.7326 11.0585 40.8054 11.071 40.8268 11.1417C40.4673 11.1583 40.1036 11.1625 39.7442 11.1667C38.1266 11.1833 36.5048 11.1708 34.8872 11.1708C34.8743 11.1542 34.8615 11.1334 34.8487 11.1251C33.8901 10.5594 32.9316 9.99789 31.973 9.43222Z" fill="#EC6F27"/>
<path d="M34.8629 21.8934C36.7801 21.8934 38.6971 21.8892 40.6142 21.8892C40.6784 21.8892 40.7426 21.8767 40.7982 21.9226C36.8956 24.2475 32.9929 26.5726 29.0902 28.8977C29.056 28.9184 29.0132 28.9351 28.9789 28.9559C28.9148 28.8602 29.0089 28.802 29.0431 28.7354C29.1287 28.5691 29.2314 28.4111 29.3256 28.2488C29.976 27.1216 30.6307 25.9986 31.2727 24.8673C31.5122 24.443 31.7776 24.0355 31.983 23.5946C32.9544 23.0497 33.9087 22.4757 34.8629 21.8934Z" fill="#027F37"/>
<path d="M31.9773 23.5946C31.7719 24.0355 31.5066 24.443 31.2669 24.8673C30.625 25.9986 29.9703 27.1216 29.3198 28.2488C29.2257 28.4111 29.123 28.5691 29.0375 28.7355C29.0032 28.8021 28.909 28.8603 28.9732 28.9559C28.939 28.9933 28.8962 29.0308 28.862 28.9601C28.8449 28.9269 28.8534 28.8769 28.8534 28.8353C28.8534 25.329 28.8534 21.8227 28.8534 18.3205C29.2257 18.4786 29.551 18.7115 29.8933 18.9153C30.5908 19.3229 31.284 19.743 31.9773 20.159C31.9816 21.3028 31.9773 22.4466 31.9773 23.5946Z" fill="#63B12F"/>
<path d="M34.8877 11.1706C36.5053 11.1706 38.1271 11.183 39.7447 11.1664C40.1041 11.1622 40.4678 11.1539 40.8273 11.1414C40.823 11.2163 40.7546 11.2246 40.7075 11.2538C37.8361 12.9632 34.969 14.6727 32.0976 16.3781C32.0634 16.3988 32.0206 16.4155 31.9864 16.4363C31.9864 15.2551 31.9821 14.0696 31.9821 12.8884C32.0249 12.8634 32.0677 12.8426 32.1105 12.8177C33.0348 12.2686 33.9634 11.7196 34.8877 11.1706Z" fill="#D80851"/>
<path d="M20.0897 23.5118C20.0854 23.3705 20.1752 23.2664 20.2394 23.1541C20.6845 22.3764 21.1338 21.6027 21.5831 20.8249C22.0966 19.9348 22.6144 19.0447 23.1279 18.1546C23.1707 18.1339 23.2178 18.1172 23.2606 18.0922C24.1378 17.5723 25.0108 17.0524 25.888 16.5283C26.2774 16.6988 26.6198 16.9484 26.9835 17.1605C27.5612 17.4975 28.1346 17.8426 28.708 18.1879C28.768 18.2211 28.8407 18.2461 28.8621 18.321C27.0477 19.3982 25.2333 20.4797 23.4146 21.557C22.3619 22.1767 21.3221 22.8006 20.2779 23.4203C20.218 23.4536 20.1667 23.5077 20.0897 23.5118Z" fill="#984A95"/>
<path d="M20.0183 23.5152C20.044 23.5152 20.0654 23.511 20.0911 23.511C20.0697 23.5485 20.044 23.5734 20.0183 23.5152Z" fill="#984A95"/>
<path d="M20.0898 9.51974C20.0727 9.51142 20.0598 9.49894 20.0427 9.49062C20.0684 9.48645 20.0855 9.49477 20.0898 9.51974Z" fill="#1587C8"/>
</svg>
