<svg width="130" height="44" viewBox="0 0 130 44" fill="none" xmlns="http://www.w3.org/2000/svg">
<path d="M0 9.01816H7.82635V36.1431H6.98662V9.89055H0V9.01816ZM0 11.1656H5.64303V36.1431H4.76971V12.038H0V11.1656ZM0 13.3802H3.4933V36.1431H2.61998V14.2525H0V13.3802Z" fill="#FAFAFA"/>
<path d="M16.6136 13.6753C14.3093 15.9737 13.1572 18.7385 13.1572 21.9731C13.1572 25.2077 14.3093 27.9659 16.6136 30.2542C18.9179 32.5425 21.689 33.68 24.9303 33.68C26.7576 33.68 28.4404 33.3144 29.9688 32.5862L29.3104 31.9285C27.9735 32.5124 26.5124 32.8077 24.9303 32.8077C21.9174 32.8077 19.3478 31.7473 17.2216 29.6268C15.0954 27.5062 14.0306 24.9527 14.0306 21.9731C14.0306 18.9668 15.0954 16.4032 17.2216 14.2826C19.3478 12.162 21.9174 11.0984 24.9303 11.0984C27.7486 11.0984 30.1804 12.0278 32.226 13.8867L32.834 13.2794C30.6137 11.2426 27.9803 10.226 24.9303 10.226C21.689 10.226 18.9179 11.3768 16.6136 13.6753Z" fill="#FAFAFA"/>
<path d="M18.178 15.1818C16.307 17.0541 15.3733 19.3156 15.3733 21.9731C15.3733 24.6037 16.307 26.8552 18.178 28.7274C20.0489 30.5998 22.2994 31.5359 24.9294 31.5359C26.1387 31.5359 27.2673 31.338 28.3153 30.942L27.6334 30.2608C26.787 30.5294 25.8867 30.6669 24.9294 30.6669C22.5278 30.6669 20.4788 29.8214 18.7859 28.1235C17.093 26.4257 16.2465 24.3789 16.2465 21.9765C16.2465 19.574 17.093 17.5172 18.7859 15.8126C20.4788 14.1081 22.5278 13.2457 24.9294 13.2457C27.1464 13.2457 29.0643 13.9739 30.6766 15.4335L31.2947 14.8161C29.501 13.1887 27.3815 12.3734 24.9294 12.3734C22.2994 12.3734 20.0489 13.3095 18.178 15.1818Z" fill="#FAFAFA"/>
<path d="M30.9591 33.5761C29.1452 34.5391 27.1366 35.0223 24.9297 35.0223C21.339 35.0223 18.2655 33.7439 15.7127 31.1904C13.1599 28.6371 11.8802 25.5635 11.8802 21.9699C11.8802 18.3528 13.1565 15.2726 15.7127 12.7325C18.2655 10.1892 21.339 8.91747 24.9297 8.91747C28.339 8.91747 31.2815 10.065 33.757 12.3567L34.2273 11.887C34.2777 11.8367 34.328 11.7897 34.3818 11.7461C31.7416 9.27986 28.5909 8.04507 24.9297 8.04507C21.0837 8.04507 17.802 9.404 15.0846 12.1252C12.3672 14.8431 11.0068 18.128 11.0068 21.9699C11.0068 25.8152 12.3672 29.0967 15.0846 31.8146C17.802 34.5358 21.0837 35.8947 24.9297 35.8947C27.3851 35.8947 29.6121 35.3377 31.6107 34.2271L30.9591 33.5761Z" fill="#FAFAFA"/>
<path d="M34.6405 13.5677L25.4336 22.7614L28.2987 28.8682L35.2014 35.3072L41.6203 30.4083L46.699 25.5228L46.5815 22.6339L37.6198 13.6851L34.6405 13.5677Z" fill="#15232D"/>
<path d="M34.14 30.7036L35.7018 29.1433C36.0512 28.7944 36.0512 28.2307 35.7018 27.8817C35.3525 27.5327 34.7882 27.5327 34.4389 27.8817L32.877 29.442C32.5276 29.7909 32.5276 30.3546 32.877 30.7036C33.2263 31.0526 33.7906 31.0526 34.14 30.7036Z" fill="url(#paint0_linear_638_33)"/>
<path d="M32.0406 28.6066L33.6025 27.0463C33.9518 26.6974 33.9518 26.1337 33.6025 25.7847C33.2532 25.4358 32.6889 25.4358 32.3395 25.7847L30.7776 27.345C30.4283 27.694 30.4283 28.2576 30.7776 28.6066C31.1269 28.9556 31.6912 28.9556 32.0406 28.6066Z" fill="url(#paint1_linear_638_33)"/>
<path d="M38.375 21.4899L42.1707 25.2814L42.5905 25.7009C42.5939 25.7042 42.5939 25.7042 42.5973 25.7075C42.9331 26.0364 43.4773 26.0364 43.8099 25.7009C44.1391 25.372 44.1457 24.8385 43.8266 24.503L38.4927 19.1713L36.84 20.8222L35.5703 22.0905C34.7508 22.9091 33.4206 22.9091 32.5977 22.0905C32.3794 21.8724 32.2046 21.6979 31.9897 21.4831L31.1131 20.6074L35.52 16.2051L33.7598 14.4469L26.3333 21.8623L28.3654 23.8923L29.4268 22.8319C30.2363 22.0233 31.5497 22.0233 32.3592 22.8319C32.7656 23.238 32.9671 23.7682 32.9671 24.3016C33.4979 24.3016 34.0319 24.503 34.4384 24.909C34.8549 25.3251 35.0565 25.8753 35.0429 26.4189C35.5905 26.4055 36.138 26.6068 36.5545 27.0229C36.9643 27.4322 37.1658 27.9724 37.1625 28.5126C37.7 28.506 38.2407 28.7072 38.6539 29.12C38.9394 29.4052 39.1241 29.7542 39.2081 30.1199C39.3593 30.0829 39.5003 30.0091 39.6179 29.8917C39.9538 29.5561 39.9538 29.0093 39.6179 28.6737L39.198 28.2542L35.4024 24.4627C35.1606 24.2212 35.1606 23.8285 35.4024 23.587C35.6442 23.3454 36.0373 23.3454 36.2791 23.587L40.0747 27.3785L40.4946 27.798C40.8305 28.1335 41.3779 28.1335 41.7139 27.798C42.0497 27.4624 42.0497 26.9155 41.7139 26.5799L41.294 26.1605L37.4984 22.3689C37.2565 22.1273 37.2565 21.7348 37.4984 21.4932C37.7402 21.2482 38.1333 21.2482 38.375 21.4899Z" fill="url(#paint2_linear_638_33)"/>
<path d="M36.2161 32.7771L37.7781 31.2169C38.1273 30.8679 38.1273 30.3042 37.7781 29.9552C37.4287 29.6063 36.8644 29.6063 36.515 29.9552L34.9532 31.5155C34.6038 31.8645 34.6038 32.4282 34.9532 32.7771C35.3024 33.1261 35.8668 33.1261 36.2161 32.7771Z" fill="url(#paint3_linear_638_33)"/>
<path d="M31.5063 23.6908C31.1569 23.3418 30.5927 23.3418 30.2433 23.6908L28.6814 25.2509C28.3321 25.5999 28.3321 26.1637 28.6814 26.5126C29.0307 26.8615 29.5951 26.8615 29.9443 26.5126L31.5063 24.9557C31.8556 24.6067 31.8556 24.0396 31.5063 23.6908Z" fill="url(#paint4_linear_638_33)"/>
<path d="M46.5814 22.6342L45.0767 24.1374C45.4797 24.9259 45.352 25.9191 44.6903 26.58C44.2806 26.9895 43.7465 27.1941 43.2091 27.1941C43.2091 27.731 43.0007 28.2645 42.5944 28.6739C42.1845 29.0832 41.6505 29.2879 41.1131 29.2879C41.1131 29.8247 40.9048 30.3582 40.4984 30.7676C40.1121 31.1534 39.6116 31.3581 39.1077 31.3817C39.007 31.6232 38.8558 31.8514 38.661 32.0494L37.0555 33.6532C36.246 34.4618 34.9326 34.4618 34.1231 33.6532C33.7133 33.2439 33.5118 32.7037 33.5151 32.1635C32.9776 32.1701 32.4369 31.9688 32.0237 31.5561C31.6072 31.14 31.4057 30.5898 31.4191 30.0462C30.8716 30.0596 30.3241 29.8583 29.9076 29.4422C29.5011 29.0363 29.2997 28.5061 29.2997 27.9725C28.7689 27.9725 28.2348 27.7713 27.8284 27.3652C27.1331 26.6706 27.0357 25.607 27.5328 24.8084L25.4604 22.7382L24.8121 23.3857C24.2612 23.9361 24.2612 24.8285 24.8121 25.3822L35.0636 35.6228C35.6145 36.1731 36.5079 36.1731 37.0621 35.6228L47.3271 25.3687C47.878 24.8185 47.878 23.926 47.3271 23.3724L46.5814 22.6342Z" fill="url(#paint5_linear_638_33)"/>
<path d="M36.4006 15.326L37.8349 13.8933L37.0724 13.1316C36.5216 12.5813 35.6247 12.5813 35.0739 13.1316L34.6372 13.5678L36.4006 15.326Z" fill="url(#paint6_linear_638_33)"/>
<path d="M34.7644 21.144L36.9343 18.9765L37.8009 18.1108L38.3686 17.5437L38.4996 17.4128L39.9338 15.9801L38.718 14.7654L32.8499 20.624L33.3705 21.144C33.7534 21.5266 34.3781 21.5266 34.7644 21.144Z" fill="url(#paint7_linear_638_33)"/>
<path d="M45.7051 21.7551L39.8572 15.9168L38.4229 17.3495L44.2708 23.1879L45.7051 21.7551Z" fill="url(#paint8_linear_638_33)"/>
<path d="M54.8008 19.4593C54.6554 18.9512 54.505 18.4119 54.3492 17.8363C54.1882 17.2659 54.0378 16.7318 53.8975 16.234L53.0047 13.0345C52.849 12.4693 52.6725 11.8523 52.4804 11.173C52.2884 10.4937 52.1118 9.85585 51.9458 9.25433H53.8249C53.9962 9.944 54.1779 10.6752 54.3699 11.4374C54.5569 12.1997 54.7333 12.9308 54.9047 13.6205L55.8649 17.4681H56.0103L56.9551 13.5687C57.116 12.8997 57.2925 12.1841 57.4845 11.4167C57.6714 10.6492 57.8428 9.92844 58.0088 9.25433H59.8776C60.0489 9.944 60.2306 10.6648 60.4123 11.4167C60.5992 12.1634 60.7809 12.8893 60.9574 13.5842L61.9228 17.4681H62.0682L63.0338 13.5635C63.1998 12.8945 63.3815 12.1789 63.5684 11.4115C63.7553 10.6492 63.9318 9.92844 64.0979 9.25952H65.977C65.8057 9.86622 65.6241 10.504 65.4371 11.1678C65.2503 11.8367 65.0738 12.4486 64.9181 13.0138L64.0096 16.234C63.8591 16.7421 63.7085 17.2866 63.5424 17.8622C63.3815 18.4378 63.231 18.972 63.0908 19.4593H60.9937C60.8223 18.806 60.6407 18.1163 60.459 17.3903C60.2669 16.6695 60.0905 15.9903 59.9243 15.3525L58.9588 11.6396H58.8135L57.8687 15.3525C57.7078 15.9903 57.5313 16.6747 57.3444 17.406C57.1576 18.1371 56.981 18.8215 56.815 19.4593H54.8008Z" fill="#FAFAFA"/>
<path d="M67.5442 19.4593V9.25433H74.0485V10.67H69.1897V13.6101H73.7837V14.9791H69.1897V18.0437H74.0848V19.4593H67.5442Z" fill="#FAFAFA"/>
<path d="M76.0618 19.4593V9.25433H77.7437V17.9763H82.6284V19.4593H76.0618Z" fill="#FAFAFA"/>
<path d="M88.7761 19.646C87.686 19.646 86.7465 19.4178 85.9522 18.9666C85.158 18.5155 84.5506 17.8881 84.1197 17.0947C83.6941 16.3013 83.4761 15.3887 83.4761 14.362C83.4761 13.3352 83.6838 12.4226 84.1042 11.624C84.5247 10.8255 85.1164 10.2032 85.8795 9.7469C86.6425 9.29575 87.5458 9.0676 88.5788 9.0676C89.2433 9.0676 89.8766 9.15056 90.4736 9.32169C91.0705 9.49281 91.5585 9.6743 91.9322 9.87653L91.7869 11.4633C91.2314 11.1262 90.7019 10.8825 90.1932 10.7373C89.6845 10.5921 89.1966 10.5195 88.7345 10.5195C88.0545 10.5195 87.4523 10.6751 86.9229 10.981C86.3934 11.287 85.9781 11.7277 85.6771 12.3033C85.376 12.8737 85.2254 13.5634 85.2254 14.3568C85.2254 15.062 85.3656 15.7102 85.6407 16.2962C85.9159 16.8821 86.3312 17.3488 86.8814 17.7015C87.4317 18.054 88.122 18.2303 88.9474 18.2303C89.4197 18.2303 89.8974 18.1681 90.3749 18.0385C90.8525 17.9088 91.3145 17.6807 91.7557 17.3592L91.8699 18.9356C91.4598 19.1793 90.9771 19.3607 90.4268 19.4748C89.8766 19.589 89.3367 19.646 88.7761 19.646Z" fill="#FAFAFA"/>
<path d="M98.5343 19.6456C97.6466 19.6456 96.8732 19.5056 96.2191 19.2256C95.5599 18.9456 95.0148 18.5566 94.5839 18.0692C94.1479 17.5817 93.8261 17.0166 93.6132 16.3839C93.4004 15.7513 93.2966 15.0772 93.2966 14.3668C93.2966 13.3764 93.4939 12.4845 93.8935 11.6859C94.2932 10.8873 94.8799 10.2495 95.6481 9.78283C96.4215 9.31095 97.3663 9.07761 98.4876 9.07761C99.6245 9.07761 100.574 9.31613 101.348 9.78801C102.116 10.2651 102.698 10.9029 103.087 11.7015C103.476 12.5 103.673 13.3919 103.673 14.3668C103.673 15.3728 103.471 16.275 103.072 17.0736C102.671 17.8721 102.085 18.4996 101.322 18.9611C100.548 19.4123 99.6192 19.6456 98.5343 19.6456ZM98.498 18.2299C99.2819 18.2299 99.9255 18.0485 100.429 17.6855C100.933 17.3225 101.306 16.8454 101.555 16.2543C101.799 15.6632 101.924 15.0305 101.924 14.3616C101.924 13.6356 101.794 12.9823 101.53 12.3963C101.265 11.8103 100.881 11.3488 100.372 11.0014C99.8632 10.6592 99.2403 10.488 98.498 10.488C97.7297 10.488 97.0912 10.6695 96.5773 11.0273C96.0686 11.3851 95.6844 11.857 95.4301 12.4482C95.1757 13.0393 95.0459 13.6771 95.0459 14.3616C95.0459 15.0513 95.1706 15.6891 95.4197 16.275C95.6689 16.861 96.0478 17.3329 96.5566 17.6906C97.0652 18.0485 97.7141 18.2299 98.498 18.2299Z" fill="#FAFAFA"/>
<path d="M104.946 19.4593C105.013 18.9149 105.081 18.3756 105.148 17.8363C105.216 17.2971 105.289 16.711 105.361 16.0836L105.792 12.6975C105.87 12.0752 105.943 11.4945 106.005 10.95C106.073 10.4055 106.145 9.84029 106.218 9.25433H107.91C108.18 9.92844 108.445 10.5766 108.699 11.1989C108.953 11.8263 109.203 12.4434 109.452 13.0605L110.926 16.711H111.046L112.494 13.0605C112.738 12.4382 112.982 11.8211 113.226 11.2093C113.469 10.5922 113.73 9.944 114 9.25433H115.682C115.754 9.8351 115.822 10.4003 115.889 10.9396C115.956 11.4789 116.029 12.0649 116.112 12.6975L116.532 16.1095C116.61 16.7318 116.683 17.3022 116.745 17.8363C116.813 18.3652 116.88 18.9097 116.948 19.4593H115.344C115.245 18.6245 115.146 17.8311 115.058 17.074C114.965 16.3222 114.877 15.6169 114.799 14.9635L114.456 12.1478H114.337L113.189 15.1813C112.91 15.9229 112.629 16.6592 112.354 17.3903C112.078 18.1266 111.819 18.8163 111.575 19.4593H110.444C110.205 18.8474 109.935 18.1629 109.634 17.406C109.328 16.6489 109.037 15.9125 108.752 15.1969L107.542 12.1478H107.422L107.085 14.9532C107.002 15.6117 106.918 16.317 106.825 17.074C106.737 17.8311 106.639 18.6245 106.529 19.4593H104.946Z" fill="#FAFAFA"/>
<path d="M119.03 19.4593V9.25433H125.534V10.67H120.676V13.6101H125.27V14.9791H120.676V18.0437H125.571V19.4593H119.03Z" fill="#FAFAFA"/>
<path d="M52.7876 35.4669V25.2619H56.577C57.771 25.2619 58.6638 25.4952 59.2504 25.9671C59.8422 26.439 60.1329 27.2116 60.1329 28.2902C60.1329 28.928 60.0135 29.4984 59.7799 29.991C59.5463 30.4889 59.157 30.8777 58.6171 31.1578C58.0773 31.4378 57.3505 31.5778 56.4317 31.5778H54.4487V35.4617H52.7876V35.4669ZM56.4628 26.6308H54.4487V30.214H56.0891C56.8989 30.214 57.4906 30.0636 57.8645 29.7681C58.2382 29.4725 58.4251 28.985 58.4251 28.3005C58.4251 27.8028 58.3212 27.4398 58.1188 27.2012C57.9164 26.9628 57.662 26.8123 57.3609 26.7345C57.0598 26.6671 56.7587 26.6308 56.4628 26.6308Z" fill="#FAFAFA"/>
<path d="M60.2947 35.4669C60.4868 34.9172 60.6841 34.3417 60.8969 33.735C61.1045 33.1282 61.3122 32.5526 61.5042 32.0081L62.724 28.5028C62.9473 27.8754 63.1498 27.305 63.3262 26.7916C63.5027 26.2834 63.6844 25.7753 63.8609 25.2619H66.0463C66.2332 25.7908 66.4149 26.3094 66.5914 26.8123C66.7626 27.3205 66.9599 27.8857 67.1779 28.508L68.3874 32.0238C68.5847 32.5889 68.7819 33.1645 68.9896 33.7557C69.1972 34.352 69.3945 34.9225 69.5866 35.4669H67.8372C67.7127 35.078 67.5829 34.6735 67.4479 34.2639C67.3129 33.8594 67.1831 33.4601 67.0586 33.0608H62.776C62.6462 33.4601 62.5164 33.8646 62.3763 34.2743C62.2362 34.6839 62.1115 35.078 61.9869 35.4669H60.2947ZM64.8731 26.7397L63.212 31.78H66.6433L65.0185 26.7397H64.8731Z" fill="#FAFAFA"/>
<path d="M71.1526 35.4669V25.2619H74.7759C75.9699 25.2619 76.8731 25.4745 77.4856 25.8997C78.0982 26.3249 78.4044 27.056 78.4044 28.0983C78.4044 28.5806 78.3265 29.0265 78.1656 29.4414C78.0099 29.8562 77.7503 30.2088 77.3974 30.4992C77.0445 30.7948 76.5721 30.9971 75.9854 31.1111L77.06 32.5268C77.2987 32.843 77.5531 33.175 77.8179 33.5275C78.0878 33.8853 78.3473 34.2328 78.6069 34.5646C78.8613 34.9017 79.0844 35.2024 79.2818 35.4669H77.3403C77.034 35.0469 76.7382 34.6424 76.4578 34.2535C76.1723 33.8646 75.8972 33.486 75.622 33.1127L74.4853 31.5415H72.8034V35.4721H71.1526V35.4669ZM74.7189 26.6308H72.7982V30.1725H74.3606C75.1393 30.1725 75.7207 30.0325 76.0997 29.7525C76.4838 29.4725 76.6706 28.9799 76.6706 28.285C76.6706 27.782 76.5668 27.419 76.3644 27.1805C76.162 26.9471 75.9076 26.7968 75.6065 26.7293C75.3158 26.6619 75.0199 26.6308 74.7189 26.6308Z" fill="#FAFAFA"/>
<path d="M83.1349 35.4669V26.745H79.7815V25.2619H88.1546V26.745H84.8116V35.4669H83.1349Z" fill="#FAFAFA"/>
<path d="M89.7788 35.4669V25.2619H91.2687C91.8344 26.0656 92.3743 26.8279 92.8883 27.559C93.397 28.2902 93.9056 29.0162 94.4092 29.7369L96.4233 32.5942H96.5583V25.2671H98.1415V35.4721H96.6725C96.2053 34.8084 95.7174 34.1134 95.2034 33.3823C94.6948 32.6563 94.1289 31.8629 93.5216 30.9918L91.4918 28.1087H91.362V35.4721H89.7788V35.4669Z" fill="#FAFAFA"/>
<path d="M100.555 35.4669V25.2619H107.06V26.6775H102.2V29.6177H106.795V30.9866H102.2V34.0513H107.095V35.4669H100.555Z" fill="#FAFAFA"/>
<path d="M109.064 35.4669V25.2619H112.688C113.881 25.2619 114.784 25.4745 115.397 25.8997C116.009 26.3249 116.315 27.056 116.315 28.0983C116.315 28.5806 116.238 29.0265 116.077 29.4414C115.921 29.8562 115.661 30.2088 115.309 30.4992C114.956 30.7948 114.483 30.9971 113.896 31.1111L114.971 32.5268C115.21 32.843 115.465 33.175 115.729 33.5275C115.999 33.8853 116.259 34.2328 116.518 34.5646C116.773 34.9017 116.996 35.2024 117.193 35.4669H115.252C114.946 35.0469 114.649 34.6424 114.369 34.2535C114.084 33.8646 113.808 33.486 113.533 33.1127L112.386 31.5363H110.704V35.4669H109.064ZM112.63 26.6308H110.709V30.1725H112.272C113.051 30.1725 113.632 30.0325 114.011 29.7525C114.395 29.4725 114.582 28.9799 114.582 28.285C114.582 27.782 114.478 27.419 114.275 27.1805C114.074 26.9471 113.819 26.7968 113.518 26.7293C113.227 26.6619 112.926 26.6308 112.63 26.6308Z" fill="#FAFAFA"/>
<path d="M121.832 35.6537C121.407 35.6537 120.976 35.6174 120.54 35.5448C120.104 35.4722 119.699 35.3789 119.32 35.2596C118.947 35.1456 118.645 35.0315 118.411 34.9174L118.547 33.3514C119.04 33.6262 119.554 33.844 120.093 34.0048C120.634 34.1655 121.173 34.2433 121.714 34.2433C122.295 34.2433 122.777 34.1292 123.161 33.8959C123.546 33.6625 123.737 33.2892 123.737 32.7654C123.737 32.2728 123.519 31.8995 123.088 31.6454C122.658 31.3913 122.056 31.1476 121.288 30.9142C120.649 30.7171 120.105 30.4994 119.652 30.2608C119.201 30.0223 118.858 29.7216 118.619 29.3533C118.381 28.9903 118.261 28.5186 118.261 27.943C118.261 27.1133 118.547 26.4236 119.123 25.8843C119.699 25.3398 120.556 25.0702 121.697 25.0702C122.316 25.0702 122.917 25.148 123.504 25.3035C124.091 25.459 124.553 25.6302 124.895 25.822L124.745 27.3829C124.303 27.0925 123.837 26.8695 123.328 26.7191C122.824 26.5688 122.368 26.491 121.962 26.491C121.438 26.491 120.987 26.6051 120.602 26.8332C120.223 27.0613 120.032 27.4088 120.032 27.8755C120.032 28.3059 120.208 28.6378 120.561 28.8763C120.914 29.1148 121.479 29.3534 122.258 29.5971C123.073 29.8563 123.722 30.1156 124.195 30.3801C124.667 30.6445 125.005 30.9557 125.201 31.3134C125.399 31.6712 125.497 32.1224 125.497 32.6617C125.497 33.2425 125.368 33.7559 125.108 34.207C124.849 34.6582 124.449 35.0107 123.914 35.27C123.385 35.5241 122.689 35.6537 121.832 35.6537Z" fill="#FAFAFA"/>
<defs>
<linearGradient id="paint0_linear_638_33" x1="34.2893" y1="12.572" x2="34.2893" y2="36.0558" gradientUnits="userSpaceOnUse">
<stop offset="0.0672832" stop-color="#8DC74F"/>
<stop offset="0.9403" stop-color="#3FAF49"/>
</linearGradient>
<linearGradient id="paint1_linear_638_33" x1="32.1901" y1="12.5721" x2="32.1901" y2="36.0561" gradientUnits="userSpaceOnUse">
<stop offset="0.0672832" stop-color="#8DC74F"/>
<stop offset="0.9403" stop-color="#3FAF49"/>
</linearGradient>
<linearGradient id="paint2_linear_638_33" x1="35.1993" y1="12.5721" x2="35.1993" y2="36.056" gradientUnits="userSpaceOnUse">
<stop offset="0.0672832" stop-color="#8DC74F"/>
<stop offset="0.9403" stop-color="#3FAF49"/>
</linearGradient>
<linearGradient id="paint3_linear_638_33" x1="36.3648" y1="12.5719" x2="36.3648" y2="36.0558" gradientUnits="userSpaceOnUse">
<stop offset="0.0672832" stop-color="#8DC74F"/>
<stop offset="0.9403" stop-color="#3FAF49"/>
</linearGradient>
<linearGradient id="paint4_linear_638_33" x1="30.094" y1="12.5719" x2="30.094" y2="36.0558" gradientUnits="userSpaceOnUse">
<stop offset="0.0672832" stop-color="#8DC74F"/>
<stop offset="0.9403" stop-color="#3FAF49"/>
</linearGradient>
<linearGradient id="paint5_linear_638_33" x1="36.0656" y1="12.5722" x2="36.0656" y2="36.0562" gradientUnits="userSpaceOnUse">
<stop offset="0.0672832" stop-color="#8DC74F"/>
<stop offset="0.9403" stop-color="#3FAF49"/>
</linearGradient>
<linearGradient id="paint6_linear_638_33" x1="36.2365" y1="12.5721" x2="36.2365" y2="36.056" gradientUnits="userSpaceOnUse">
<stop offset="0.0672832" stop-color="#8DC74F"/>
<stop offset="0.9403" stop-color="#3FAF49"/>
</linearGradient>
<linearGradient id="paint7_linear_638_33" x1="36.3893" y1="12.5719" x2="36.3893" y2="36.0558" gradientUnits="userSpaceOnUse">
<stop offset="0.0672832" stop-color="#8DC74F"/>
<stop offset="0.9403" stop-color="#3FAF49"/>
</linearGradient>
<linearGradient id="paint8_linear_638_33" x1="42.0636" y1="12.5723" x2="42.0636" y2="36.0562" gradientUnits="userSpaceOnUse">
<stop offset="0.0672832" stop-color="#8DC74F"/>
<stop offset="0.9403" stop-color="#3FAF49"/>
</linearGradient>
</defs>
</svg>
